<svg height="480pt" viewBox="-56 0 480 480" width="480pt" xmlns="http://www.w3.org/2000/svg"><g fill="#78b9eb"><path d="m327.566406 224.398438c-29.117187 45.125-87.808594 60.65625-135.4375 35.839843l16.078125-12.238281 16-24 8-24 24-16 24 8 32 8zm0 0"/><path d="m240.207031 64c-13.988281-.011719-27.835937 2.789062-40.71875 8.238281l8.71875 23.761719 32 16 16 24 32 8 24 16 32 8c0-57.4375-46.5625-104-104-104zm0 0"/><path d="m216.207031 152-24-8-8-24-16-26.960938c-38.910156 37.304688-42.835937 98.167969-9.039062 140.160157l.71875-.558594 16.320312-24.640625 24-16 16-16zm0 0"/><path d="m328.207031 408c-17.671875 0-32 14.328125-32 32s14.328125 32 32 32c17.675781 0 32-14.328125 32-32 .042969-8.5-3.3125-16.664062-9.324219-22.675781-6.011718-6.007813-14.175781-9.367188-22.675781-9.324219zm0 0"/><path d="m40.207031 408c-14.53125-.035156-27.269531 9.699219-31.050781 23.730469-3.785156 14.03125 2.335938 28.851562 14.917969 36.125 12.582031 7.269531 28.480469 5.179687 38.75-5.101563s12.347656-26.179687 5.0625-38.753906c-5.710938-9.890625-16.257813-15.988281-27.679688-16zm0 0"/><path d="m144.207031 416h80v48h-80zm0 0"/><path d="m160.207031 360h48v32h-48zm0 0"/><path d="m80.207031 64v208h32v24h208v32h-256c-26.507812 0-48-21.492188-48-48v-224c0-26.507812 21.492188-48 48-48h256v32h-208v24zm0 0"/></g><path d="m360.207031 72c4.417969 0 8-3.582031 8-8v-24c0-4.417969-3.582031-8-8-8h-32v-24c0-4.417969-3.582031-8-8-8h-256c-30.914062.0351562-55.964843 25.085938-56 56v224c.035157 30.914062 25.085938 55.964844 56 56h88v16h-8v16h8v16h-8v16h8v8h-8c-4.417969 0-8 3.582031-8 8h-64.207031c-10.332031-13.773438-28.316406-19.390625-44.648438-13.949219-16.335937 5.445313-27.351562 20.730469-27.351562 37.949219s11.015625 32.503906 27.351562 37.949219c16.332032 5.441406 34.316407-.175781 44.648438-13.949219h64.207031c0 4.417969 3.582031 8 8 8h80c4.417969 0 8-3.582031 8-8h64.207031c10.332032 13.773438 28.316407 19.390625 44.652344 13.949219 16.332032-5.445313 27.347656-20.730469 27.347656-37.949219s-11.015624-32.503906-27.347656-37.949219c-16.335937-5.441406-34.320312.175781-44.652344 13.949219h-64.207031c0-4.417969-3.582031-8-8-8h-8v-8h8v-16h-8v-16h8v-16h-8v-16h104c4.417969 0 8-3.582031 8-8v-24h32c4.417969 0 8-3.582031 8-8v-24c0-4.417969-3.582031-8-8-8h-62.605469c33.855469-20.132812 54.605469-56.609375 54.605469-96s-20.75-75.867188-54.605469-96zm-320 392c-13.253906 0-24-10.746094-24-24s10.746094-24 24-24c13.253907 0 24 10.746094 24 24s-10.746093 24-24 24zm39.199219-16c1.078125-5.277344 1.078125-10.722656 0-16h56.800781v16zm248.800781-32c13.253907 0 24 10.746094 24 24s-10.746093 24-24 24c-13.253906 0-24-10.746094-24-24s10.746094-24 24-24zm-39.199219 16c-1.078124 5.277344-1.078124 10.722656 0 16h-56.800781v-16zm-72.800781 24h-64v-32h64zm-16-48h-32v-8h32zm0-24h-32v-16h32zm0-32h-32v-16h32zm112-32h-248c-22.078125-.027344-39.972656-17.917969-40-40v-224c.027344-22.082031 17.921875-39.972656 40-40h248v16h-200c-4.417969 0-8 3.582031-8 8v16h-24c-4.417969 0-8 3.582031-8 8v208c0 4.417969 3.582031 8 8 8h24v16c0 4.417969 3.582031 8 8 8h200zm-111.503906-221.238281c.703125 1.910156 2.105469 3.484375 3.929687 4.398437l30.09375 15.046875 14.824219 22.234375c1.105469 1.652344 2.789063 2.835938 4.722657 3.320313l30.65625 7.664062 22.839843 15.199219c.761719.507812 1.609375.882812 2.503907 1.101562l25.597656 6.402344c-.738282 11.933594-3.722656 23.621094-8.800782 34.445313l-8.078124-12.871094c-1.101563-1.75-2.835938-3.003906-4.839844-3.503906l-31.410156-7.832031-24-8c-2.339844-.773438-4.910157-.425782-6.964844.9375l-24 16c-1.480469.988281-2.585938 2.441406-3.144532 4.128906l-7.664062 22.980468-14.65625 21.984376-10.769531 8.160156c-8.199219-4.851563-15.632813-10.890625-22.0625-17.917969l12.519531-18.921875 22.65625-15.101562c.433594-.296876.84375-.632813 1.214844-1l16-16c1.488281-1.492188 2.328125-3.511719 2.335937-5.617188v-24c0-3.445312-2.203125-6.503906-5.472656-7.59375l-20.199219-6.734375-6.742187-20.199219c-.179688-.542968-.414063-1.0625-.703125-1.550781l-12.625-21.320313c5.117187-4.320312 10.667968-8.097656 16.566406-11.265624zm-33.917969 7.519531 10.101563 17.054688 7.738281 23.199218c.792969 2.390625 2.667969 4.265625 5.054688 5.066406l18.527343 6.167969v14.917969l-13.09375 13.097656-23.34375 15.558594c-.886719.589844-1.648437 1.351562-2.234375 2.242188l-10.398437 15.660156c-22.480469-35.257813-19.394531-81.039063 7.605469-112.964844zm-38.578125 61.71875c.050781 39.378906 20.785157 75.832031 54.609375 96h-94.609375v-192h94.609375c-33.824218 20.167969-54.558594 56.621094-54.609375 96zm224 112v8h-232v-8zm-112-16c-11.023437-.019531-21.957031-1.957031-32.320312-5.71875l5.121093-3.882812c.710938-.539063 1.328126-1.191407 1.824219-1.933594l16-24c.398438-.589844.710938-1.234375.929688-1.914063l7.132812-21.390625 18.496094-12.359375 20.882813 6.933594 28.871093 7.203125 10.777344 17.152344c-17.984375 25.019531-46.898437 39.871094-77.714844 39.910156zm95.417969-106.398438-20.136719-5.035156-22.839843-15.199218c-.765626-.507813-1.613282-.882813-2.503907-1.101563l-29-7.25-14.28125-21.429687c-.773437-1.160157-1.835937-2.097657-3.078125-2.722657l-29.175781-14.597656-4.867187-13.234375c27.535156-9.300781 57.804687-5.597656 82.28125 10.070312 24.476562 15.664063 40.515624 41.601563 43.601562 70.5zm-215.417969-101.601562v-8h232v8zm0 0" fill="#006df0"/></svg>